<svg width="16" height="16" viewBox="0 0 16 16" fill="none" xmlns="http://www.w3.org/2000/svg">
<path d="M0 3C0 1.34315 1.34315 0 3 0H13C14.6569 0 16 1.34315 16 3V16H3C1.34315 16 0 14.6569 0 13V3Z" fill="white"/>
<path d="M14.8415 9.94081C14.9472 10.0183 15 10.1201 15 10.2461C15 10.3721 14.9524 10.4787 14.8573 10.5659H12.6059L13.5096 13.3281C13.5308 13.396 13.5413 13.4832 13.5413 13.5898C13.5413 13.6964 13.4673 13.8273 13.3194 13.9823C13.1714 14.1374 13.0181 14.215 12.8596 14.215C12.5636 14.215 12.3311 14.1471 12.1619 14.0114L11.0362 10.5659H6.99321L6.20045 12.5431C5.92563 13.2118 5.52926 13.7885 5.01133 14.2731C4.49339 14.7577 3.8222 15 2.99774 15C2.3741 15 1.88788 14.8498 1.53907 14.5493C1.17969 14.2489 1 13.8127 1 13.2409C1 12.6691 1.15327 12.1554 1.4598 11.6999C1.75576 11.2347 2.15213 10.8712 2.64892 10.6096C3.64251 10.0862 4.75236 9.82451 5.97848 9.82451L8.29332 3.83489C8.39902 3.55382 8.51 3.34545 8.62627 3.20976C8.2986 2.2018 8.13477 1.64936 8.13477 1.55244C8.13477 1.44583 8.20876 1.32953 8.35674 1.20353C8.51529 1.06784 8.67384 1 8.83239 1C9.13892 1 9.37675 1.06784 9.54587 1.20353L12.3522 9.82451L14.4292 9.80997C14.6089 9.80997 14.7463 9.85358 14.8415 9.94081ZM2.99774 14.3894C3.79049 14.3894 4.47754 13.6577 5.05889 12.1942L5.67724 10.5805C4.51453 10.5805 3.58966 10.8325 2.9026 11.3364C2.22612 11.8404 1.88788 12.5043 1.88788 13.3281C1.88788 13.6674 1.9883 13.929 2.18913 14.1132C2.40053 14.2973 2.67006 14.3894 2.99774 14.3894ZM9.22877 4.32918L7.29445 9.82451H10.7826L9.22877 4.32918Z" fill="url(#paint0_linear_4_26)"/>
<defs>
<linearGradient id="paint0_linear_4_26" x1="8" y1="1" x2="8" y2="15" gradientUnits="userSpaceOnUse">
<stop stop-color="#142424" stop-opacity="0.8"/>
<stop offset="1" stop-color="#142424"/>
</linearGradient>
</defs>
</svg>
