<svg width="155" height="140" viewBox="0 0 155 140" fill="none" xmlns="http://www.w3.org/2000/svg">
<path d="M147.185 109.953C122.28 147.895 27.9112 150.619 5.53522 114.039C-16.8408 77.4591 32.7756 1.5753 80.057 0.0187056C127.144 -1.34331 171.896 72.0111 147.185 109.953Z" fill="#22A699"/>
<path d="M100.215 103.513C99.0474 102.994 97.88 102.735 96.7125 102.735C95.5451 102.735 94.5074 103.059 93.5993 103.708C92.821 104.227 91.913 105.07 90.8753 106.237C89.3187 107.794 87.6973 109.091 86.011 110.129C84.4544 111.037 81.6006 111.88 77.4497 112.658C75.6337 112.918 74.1419 113.047 72.9745 113.047C67.5264 113.047 61.8189 111.88 55.852 109.545C50.0148 107.081 45.8639 104.162 43.3993 100.789C40.8049 97.1573 39.5726 93.2658 39.7023 89.1149C39.8321 82.8885 42.4264 76.6621 47.4853 70.4358C52.4145 64.4688 56.8897 60.2531 60.9109 57.7885C65.0618 55.3239 70.7045 53.7673 77.8388 53.1187C79.3954 53.1187 81.6006 52.8593 84.4544 52.3404C87.4378 51.8215 88.9296 51.1081 88.9296 50.2001C88.9296 48.3841 88.0864 46.7626 86.4001 45.3357C84.8435 43.7791 81.6006 43.0008 76.6714 43.0008C74.8554 43.0008 72.1313 43.1306 68.4993 43.39C64.8672 43.6494 62.3378 43.7791 60.9109 43.7791C56.5006 43.7791 53.3225 43.0657 51.3768 41.6388C50.8579 41.3794 50.5985 40.1471 50.5985 37.9419C50.5985 34.0504 51.9605 31.5858 54.6845 30.5481C60.2623 28.4726 66.0347 27.3701 72.0016 27.2403C79.5252 27.2403 86.465 28.9267 92.821 32.2993C99.3068 35.5422 104.041 39.6282 107.025 44.5574C110.008 49.4866 111.954 56.2967 112.862 64.9877C113.9 74.7164 114.419 87.1043 114.419 102.151C114.419 106.302 113.835 108.702 112.668 109.351C111.63 109.999 110.657 110.323 109.749 110.323C108.582 110.323 107.479 109.999 106.441 109.351C105.533 108.572 104.495 107.535 103.328 106.237C102.161 104.811 101.123 103.902 100.215 103.513ZM69.4722 101.178C75.5688 99.3624 81.5358 96.4438 87.373 92.4226C88.6701 91.5146 89.8376 90.3472 90.8753 88.9203C91.913 87.4934 92.2373 86.5854 92.6172 86.0017C93.0156 85.418 93.275 84.7045 93.4048 82.8885C93.5715 80.5536 93.5252 78.997 93.3955 77.8296C92.9971 74.7164 93.3955 76.7918 93.0063 75.1055C92.7469 73.4192 92.1076 71.9275 91.459 70.6303C90.8104 69.5926 89.7727 68.6197 88.3458 67.7117C86.919 66.8037 85.6218 66.4146 84.4544 66.5443C81.9898 66.674 79.3306 67.582 76.4768 69.2683C73.6231 70.9546 70.9639 73.2247 68.4993 76.0784C66.0347 79.0619 64.089 82.1102 62.6621 85.2234C61.3649 88.2069 60.7163 90.9957 60.7163 93.5901C60.9758 97.0924 61.9486 99.4273 63.6349 100.595C64.543 101.243 65.6455 101.568 66.9427 101.568C67.9804 101.568 68.8236 101.438 69.4722 101.178Z" fill="#FDFDFD"/>
</svg>
