<svg width="50" height="50" viewBox="0 0 50 50" fill="none" xmlns="http://www.w3.org/2000/svg">
<rect width="50" height="50" fill="#4C4C4C"/>
<path d="M15.8825 31.1925C15.2875 31.1925 14.7275 31.0875 14.2025 30.8775C13.6775 30.6558 13.2108 30.3175 12.8025 29.8625C12.4058 29.4075 12.0967 28.83 11.875 28.13C11.6533 27.4183 11.5425 26.5783 11.5425 25.61C11.5425 24.7583 11.63 24.0117 11.805 23.37C11.98 22.7283 12.2133 22.1917 12.505 21.76C12.8083 21.3167 13.1467 20.9608 13.52 20.6925C13.905 20.4242 14.3017 20.2317 14.71 20.115C15.13 19.9983 15.5442 19.94 15.9525 19.94C16.7808 19.94 17.4808 20.1267 18.0525 20.5C18.6358 20.8733 19.085 21.3983 19.4 22.075L18.1575 23.0025L18.0175 23.09L17.93 22.95C17.9417 22.8567 17.93 22.7692 17.895 22.6875C17.8717 22.6058 17.8133 22.4833 17.72 22.32C17.4633 22.005 17.195 21.795 16.915 21.69C16.6467 21.585 16.3608 21.5325 16.0575 21.5325C15.7192 21.5325 15.3983 21.62 15.095 21.795C14.7917 21.9583 14.5175 22.2092 14.2725 22.5475C14.0275 22.8858 13.835 23.3058 13.695 23.8075C13.5667 24.2975 13.5025 24.8692 13.5025 25.5225C13.5025 26.1525 13.5608 26.7183 13.6775 27.22C13.8058 27.71 13.975 28.13 14.185 28.48C14.4067 28.83 14.6633 29.0983 14.955 29.285C15.2583 29.4717 15.585 29.565 15.935 29.565C16.215 29.565 16.4717 29.5242 16.705 29.4425C16.95 29.3608 17.1717 29.2325 17.37 29.0575C17.5683 28.8825 17.7492 28.6492 17.9125 28.3575L19.2775 29.3725C18.8692 30.0258 18.3908 30.4925 17.8425 30.7725C17.2942 31.0525 16.6408 31.1925 15.8825 31.1925ZM23.985 31.1925C23.2617 31.1925 22.5792 31.0875 21.9375 30.8775C21.3075 30.6558 20.7825 30.3233 20.3625 29.88L21.325 28.2525L21.395 28.1125L21.5525 28.2C21.5758 28.2817 21.605 28.3692 21.64 28.4625C21.6867 28.5558 21.78 28.6667 21.92 28.795C22.2117 29.0167 22.5325 29.1975 22.8825 29.3375C23.2442 29.4658 23.635 29.5358 24.055 29.5475C24.3233 29.5475 24.5683 29.5183 24.79 29.46C25.0233 29.4017 25.2217 29.3142 25.385 29.1975C25.5483 29.0808 25.6767 28.935 25.77 28.76C25.8633 28.5733 25.91 28.3633 25.91 28.13C25.91 27.99 25.8925 27.8558 25.8575 27.7275C25.8225 27.5992 25.7583 27.4767 25.665 27.36C25.5833 27.2317 25.4608 27.1092 25.2975 26.9925C25.1342 26.8642 24.93 26.73 24.685 26.59C24.44 26.4383 24.1308 26.2808 23.7575 26.1175C23.0108 25.7908 22.4158 25.4583 21.9725 25.12C21.5408 24.7817 21.2317 24.42 21.045 24.035C20.8583 23.65 20.765 23.2125 20.765 22.7225C20.765 22.1858 20.9108 21.7075 21.2025 21.2875C21.5058 20.8675 21.92 20.535 22.445 20.29C22.97 20.045 23.5708 19.9225 24.2475 19.9225C24.7025 19.9225 25.1283 19.975 25.525 20.08C25.9217 20.185 26.2892 20.3425 26.6275 20.5525C26.9658 20.7508 27.275 21.0075 27.555 21.3225L26.4 22.6525L26.295 22.775L26.155 22.67C26.1433 22.5767 26.12 22.4892 26.085 22.4075C26.0617 22.3142 25.9858 22.1975 25.8575 22.0575C25.6358 21.8475 25.3967 21.7075 25.14 21.6375C24.895 21.5675 24.6033 21.5325 24.265 21.5325C24.02 21.5325 23.8042 21.5617 23.6175 21.62C23.4308 21.6783 23.2675 21.76 23.1275 21.865C22.9992 21.97 22.8942 22.0925 22.8125 22.2325C22.7425 22.3608 22.7075 22.495 22.7075 22.635C22.7075 22.775 22.725 22.9092 22.76 23.0375C22.795 23.1542 22.8533 23.2708 22.935 23.3875C23.0283 23.5042 23.1567 23.6267 23.32 23.755C23.495 23.8717 23.7167 24 23.985 24.14C24.2533 24.28 24.5858 24.4375 24.9825 24.6125C25.5308 24.8692 25.9917 25.12 26.365 25.365C26.7383 25.5983 27.03 25.8492 27.24 26.1175C27.4617 26.3742 27.6192 26.66 27.7125 26.975C27.8058 27.2783 27.8525 27.6225 27.8525 28.0075C27.8525 28.5325 27.7183 29.04 27.45 29.53C27.1817 30.02 26.7617 30.4225 26.19 30.7375C25.6183 31.0408 24.8833 31.1925 23.985 31.1925ZM32.735 31.1925C32.0117 31.1925 31.3292 31.0875 30.6875 30.8775C30.0575 30.6558 29.5325 30.3233 29.1125 29.88L30.075 28.2525L30.145 28.1125L30.3025 28.2C30.3258 28.2817 30.355 28.3692 30.39 28.4625C30.4367 28.5558 30.53 28.6667 30.67 28.795C30.9617 29.0167 31.2825 29.1975 31.6325 29.3375C31.9942 29.4658 32.385 29.5358 32.805 29.5475C33.0733 29.5475 33.3183 29.5183 33.54 29.46C33.7733 29.4017 33.9717 29.3142 34.135 29.1975C34.2983 29.0808 34.4267 28.935 34.52 28.76C34.6133 28.5733 34.66 28.3633 34.66 28.13C34.66 27.99 34.6425 27.8558 34.6075 27.7275C34.5725 27.5992 34.5083 27.4767 34.415 27.36C34.3333 27.2317 34.2108 27.1092 34.0475 26.9925C33.8842 26.8642 33.68 26.73 33.435 26.59C33.19 26.4383 32.8808 26.2808 32.5075 26.1175C31.7608 25.7908 31.1658 25.4583 30.7225 25.12C30.2908 24.7817 29.9817 24.42 29.795 24.035C29.6083 23.65 29.515 23.2125 29.515 22.7225C29.515 22.1858 29.6608 21.7075 29.9525 21.2875C30.2558 20.8675 30.67 20.535 31.195 20.29C31.72 20.045 32.3208 19.9225 32.9975 19.9225C33.4525 19.9225 33.8783 19.975 34.275 20.08C34.6717 20.185 35.0392 20.3425 35.3775 20.5525C35.7158 20.7508 36.025 21.0075 36.305 21.3225L35.15 22.6525L35.045 22.775L34.905 22.67C34.8933 22.5767 34.87 22.4892 34.835 22.4075C34.8117 22.3142 34.7358 22.1975 34.6075 22.0575C34.3858 21.8475 34.1467 21.7075 33.89 21.6375C33.645 21.5675 33.3533 21.5325 33.015 21.5325C32.77 21.5325 32.5542 21.5617 32.3675 21.62C32.1808 21.6783 32.0175 21.76 31.8775 21.865C31.7492 21.97 31.6442 22.0925 31.5625 22.2325C31.4925 22.3608 31.4575 22.495 31.4575 22.635C31.4575 22.775 31.475 22.9092 31.51 23.0375C31.545 23.1542 31.6033 23.2708 31.685 23.3875C31.7783 23.5042 31.9067 23.6267 32.07 23.755C32.245 23.8717 32.4667 24 32.735 24.14C33.0033 24.28 33.3358 24.4375 33.7325 24.6125C34.2808 24.8692 34.7417 25.12 35.115 25.365C35.4883 25.5983 35.78 25.8492 35.99 26.1175C36.2117 26.3742 36.3692 26.66 36.4625 26.975C36.5558 27.2783 36.6025 27.6225 36.6025 28.0075C36.6025 28.5325 36.4683 29.04 36.2 29.53C35.9317 30.02 35.5117 30.4225 34.94 30.7375C34.3683 31.0408 33.6333 31.1925 32.735 31.1925Z" fill="#EBEBEB"/>
</svg>
