<svg width="50" height="50" viewBox="0 0 50 50" fill="none" xmlns="http://www.w3.org/2000/svg">
<rect width="50" height="50" fill="#4C4C4C"/>
<path d="M17.662 38C17.1807 38 16.8007 37.8227 16.522 37.468C16.2687 37.088 16.18 36.632 16.256 36.1L20.322 12.578C20.3727 12.2233 20.5247 11.9447 20.778 11.742C21.0313 11.514 21.3353 11.4 21.69 11.4C22.1967 11.4 22.5767 11.5773 22.83 11.932C23.1087 12.2867 23.21 12.73 23.134 13.262L19.068 36.784C19.0173 37.1387 18.8653 37.43 18.612 37.658C18.3587 37.886 18.042 38 17.662 38ZM16.066 20.71C15.6353 20.71 15.268 20.5707 14.964 20.292C14.6853 19.988 14.546 19.6333 14.546 19.228C14.546 18.8227 14.6853 18.4933 14.964 18.24C15.268 17.9867 15.6227 17.86 16.028 17.86H34.8C35.2307 17.86 35.5853 17.9993 35.864 18.278C36.1427 18.5567 36.282 18.9113 36.282 19.342C36.282 19.7473 36.1427 20.0767 35.864 20.33C35.5853 20.5833 35.2307 20.71 34.8 20.71H16.066ZM27.656 38C27.1747 38 26.7947 37.8227 26.516 37.468C26.2373 37.088 26.1487 36.632 26.25 36.1L30.278 12.578C30.354 12.2233 30.5187 11.9447 30.772 11.742C31.0253 11.514 31.3293 11.4 31.684 11.4C32.1653 11.4 32.5453 11.5773 32.824 11.932C33.1027 12.2867 33.1913 12.73 33.09 13.262L29.062 36.784C29.0113 37.1387 28.8593 37.43 28.606 37.658C28.3527 37.886 28.036 38 27.656 38ZM14.584 31.388C14.1533 31.388 13.786 31.2487 13.482 30.97C13.2033 30.666 13.064 30.2987 13.064 29.868C13.064 29.4627 13.2033 29.1333 13.482 28.88C13.786 28.6267 14.1533 28.5 14.584 28.5H33.356C33.7867 28.5 34.1413 28.652 34.42 28.956C34.6987 29.2347 34.838 29.5893 34.838 30.02C34.838 30.4253 34.6987 30.7547 34.42 31.008C34.1413 31.2613 33.7867 31.388 33.356 31.388H14.584Z" fill="#EBEBEB"/>
</svg>
