<svg width="50" height="50" viewBox="0 0 50 50" fill="none" xmlns="http://www.w3.org/2000/svg">
<rect width="50" height="50" fill="#4C4C4C"/>
<path d="M10.8178 38.9407C10.0577 38.9407 9.39807 38.6611 8.83884 38.1019C8.27961 37.5426 8 36.883 8 36.1229V13.8178C8 13.0577 8.27961 12.3981 8.83884 11.8388C9.39807 11.2796 10.0577 11 10.8178 11H40.1822C40.9423 11 41.6019 11.2796 42.1612 11.8388C42.7204 12.3981 43 13.0577 43 13.8178V36.1229C43 36.883 42.7204 37.5426 42.1612 38.1019C41.6019 38.6611 40.9423 38.9407 40.1822 38.9407H10.8178ZM40.1822 16.4872L26.2489 25.4968C26.1204 25.5611 25.9981 25.6155 25.8819 25.66C25.7657 25.7045 25.6384 25.7267 25.5 25.7267C25.3616 25.7267 25.2343 25.7045 25.1181 25.66C25.0019 25.6155 24.8845 25.5611 24.7659 25.4968L10.8178 16.4872V36.1229H40.1822V16.4872ZM25.5 23.161L40.0339 13.8178H10.9958L25.5 23.161ZM10.8178 16.4872V16.8209V14.898V14.9242V13.8178V14.9152V14.8882V16.823V16.4882V36.1229V16.4872Z" fill="#EBEBEB"/>
</svg>
