<svg width="50" height="50" viewBox="0 0 50 50" fill="none" xmlns="http://www.w3.org/2000/svg">
<rect width="50" height="50" fill="#4C4C4C"/>
<path d="M15.904 31.488C15.75 31.488 15.582 31.446 15.4 31.362C15.232 31.264 15.05 31.159 14.854 31.047L8.029 27.036C7.861 26.924 7.735 26.784 7.651 26.616C7.567 26.434 7.525 26.252 7.525 26.07C7.525 25.874 7.567 25.692 7.651 25.524C7.735 25.342 7.861 25.202 8.029 25.104L14.854 21.177C15.036 21.065 15.204 20.981 15.358 20.925C15.526 20.855 15.68 20.82 15.82 20.82C16.1 20.82 16.359 20.96 16.597 21.24C16.849 21.506 16.975 21.786 16.975 22.08C16.975 22.22 16.933 22.36 16.849 22.5C16.779 22.626 16.667 22.738 16.513 22.836L9.226 27.057L9.079 24.957L16.492 29.388C16.66 29.486 16.779 29.612 16.849 29.766C16.919 29.906 16.954 30.053 16.954 30.207C16.954 30.543 16.835 30.844 16.597 31.11C16.373 31.362 16.142 31.488 15.904 31.488ZM19.7972 35.814C19.5592 35.814 19.3142 35.716 19.0622 35.52C18.8102 35.324 18.6842 35.072 18.6842 34.764C18.6842 34.596 18.7262 34.428 18.8102 34.26L27.3362 16.809C27.4342 16.613 27.5672 16.459 27.7352 16.347C27.9032 16.235 28.0782 16.179 28.2602 16.179C28.4982 16.179 28.7362 16.277 28.9742 16.473C29.2262 16.655 29.3522 16.907 29.3522 17.229C29.3522 17.397 29.3102 17.565 29.2262 17.733L20.7212 35.184C20.6232 35.38 20.4902 35.534 20.3222 35.646C20.1682 35.758 19.9932 35.814 19.7972 35.814ZM32.1738 31.236C31.8938 31.236 31.6278 31.103 31.3758 30.837C31.1378 30.557 31.0188 30.27 31.0188 29.976C31.0188 29.822 31.0538 29.682 31.1238 29.556C31.2078 29.43 31.3268 29.318 31.4808 29.22L38.7678 24.999L38.9148 27.099L31.5018 22.668C31.3338 22.57 31.2148 22.451 31.1448 22.311C31.0748 22.157 31.0398 22.003 31.0398 21.849C31.0398 21.513 31.1588 21.219 31.3968 20.967C31.6348 20.701 31.8658 20.568 32.0898 20.568C32.2438 20.568 32.4048 20.617 32.5728 20.715C32.7548 20.799 32.9438 20.897 33.1398 21.009L39.9648 25.02C40.1328 25.118 40.2588 25.258 40.3428 25.44C40.4268 25.608 40.4688 25.79 40.4688 25.986C40.4688 26.182 40.4268 26.371 40.3428 26.553C40.2588 26.721 40.1328 26.854 39.9648 26.952L33.1398 30.879C32.9578 30.977 32.7898 31.061 32.6358 31.131C32.4818 31.201 32.3278 31.236 32.1738 31.236Z" fill="#EBEBEB"/>
</svg>
