<svg width="50" height="50" viewBox="0 0 50 50" fill="none" xmlns="http://www.w3.org/2000/svg">
<rect width="50" height="50" fill="#4C4C4C"/>
<path d="M15.946 31.362C15.82 31.362 15.68 31.327 15.526 31.257C15.386 31.187 15.232 31.103 15.064 31.005L8.071 26.931C7.903 26.833 7.777 26.707 7.693 26.553C7.623 26.385 7.588 26.217 7.588 26.049C7.588 25.867 7.63 25.699 7.714 25.545C7.798 25.377 7.924 25.251 8.092 25.167L15.043 21.177C15.197 21.079 15.337 21.009 15.463 20.967C15.603 20.911 15.736 20.883 15.862 20.883C16.1 20.869 16.324 20.974 16.534 21.198C16.744 21.422 16.849 21.66 16.849 21.912C16.849 22.052 16.807 22.185 16.723 22.311C16.653 22.423 16.548 22.521 16.408 22.605L9.079 26.805L8.974 25.209L16.366 29.556C16.548 29.654 16.674 29.766 16.744 29.892C16.814 30.018 16.849 30.158 16.849 30.312C16.849 30.592 16.751 30.837 16.555 31.047C16.359 31.257 16.156 31.362 15.946 31.362ZM19.4407 35.772C19.2307 35.772 19.0207 35.688 18.8107 35.52C18.6007 35.352 18.4957 35.142 18.4957 34.89C18.4957 34.736 18.5377 34.589 18.6217 34.449L27.3367 16.788C27.4347 16.592 27.5537 16.445 27.6937 16.347C27.8477 16.249 28.0157 16.2 28.1977 16.2C28.3937 16.2 28.5897 16.277 28.7857 16.431C28.9957 16.585 29.1007 16.802 29.1007 17.082C29.1007 17.236 29.0657 17.39 28.9957 17.544L20.2807 35.205C20.1827 35.387 20.0637 35.527 19.9237 35.625C19.7837 35.723 19.6227 35.772 19.4407 35.772ZM31.7411 31.173C31.5031 31.173 31.2791 31.061 31.0691 30.837C30.8731 30.599 30.7751 30.361 30.7751 30.123C30.7751 29.969 30.8101 29.836 30.8801 29.724C30.9641 29.612 31.0901 29.507 31.2581 29.409L38.5871 25.251L38.7131 26.826L31.2371 22.458C31.0831 22.374 30.9711 22.269 30.9011 22.143C30.8451 22.017 30.8171 21.877 30.8171 21.723C30.8171 21.443 30.9151 21.198 31.1111 20.988C31.3071 20.778 31.5101 20.673 31.7201 20.673C31.8461 20.673 31.9791 20.708 32.1191 20.778C32.2731 20.848 32.4271 20.932 32.5811 21.03L39.5951 25.083C39.7631 25.181 39.8891 25.307 39.9731 25.461C40.0571 25.615 40.0991 25.79 40.0991 25.986C40.0991 26.168 40.0571 26.336 39.9731 26.49C39.9031 26.644 39.7841 26.77 39.6161 26.868L32.5601 30.858C32.4061 30.942 32.2591 31.019 32.1191 31.089C31.9931 31.145 31.8671 31.173 31.7411 31.173Z" fill="#EBEBEB"/>
</svg>
