<svg width="50" height="50" viewBox="0 0 50 50" fill="none" xmlns="http://www.w3.org/2000/svg">
<rect width="50" height="50" fill="#4C4C4C"/>
<path d="M7.665 20.0975H9.6425H9.8175V20.255C9.7475 20.325 9.70083 20.4008 9.6775 20.4825C9.66583 20.5642 9.66 20.7042 9.66 20.9025V24.525H13.02V20.0975H15.015H15.1725V20.255C15.1025 20.325 15.0617 20.4008 15.05 20.4825C15.0383 20.5642 15.0325 20.7042 15.0325 20.9025V31H13.02V26.1H9.66V31H7.665V20.0975ZM19.0925 31V21.76H16.1525V20.0975H24.08V21.76H20.9825V31H19.0925ZM25.06 31V20.0975H26.7925L28.91 25.1025L31.0275 20.08H32.76V31H31.045V23.3875L29.33 27.395H28.3675L26.7575 23.405V31H25.06ZM34.2475 20.0975H36.225H36.4V20.255C36.33 20.325 36.2833 20.4008 36.26 20.4825C36.2483 20.5642 36.2425 20.7042 36.2425 20.9025V29.39H41.2475V31H34.2475V20.0975Z" fill="#EBEBEB"/>
</svg>
