<svg width="50" height="50" viewBox="0 0 50 50" fill="none" xmlns="http://www.w3.org/2000/svg">
<rect width="50" height="50" fill="#4C4C4C"/>
<path d="M14.59 36.3C13.37 36.3 12.26 35.99 11.26 35.37C10.28 34.75 9.51 33.92 8.95 32.88C8.81 32.64 8.74 32.41 8.74 32.19C8.74 31.85 8.87 31.58 9.13 31.38C9.39 31.16 9.65 31.05 9.91 31.05C10.13 31.05 10.33 31.11 10.51 31.23C10.71 31.35 10.88 31.5 11.02 31.68C11.42 32.36 11.92 32.9 12.52 33.3C13.12 33.7 13.81 33.9 14.59 33.9C15.41 33.9 16.13 33.72 16.75 33.36C17.39 33 17.89 32.51 18.25 31.89C18.63 31.25 18.82 30.53 18.82 29.73V16.2C18.82 15.86 18.94 15.58 19.18 15.36C19.44 15.12 19.75 15 20.11 15C20.47 15 20.76 15.12 20.98 15.36C21.22 15.58 21.34 15.86 21.34 16.2V29.73C21.34 30.95 21.04 32.06 20.44 33.06C19.86 34.06 19.06 34.85 18.04 35.43C17.04 36.01 15.89 36.3 14.59 36.3ZM32.7229 36.3C31.2429 36.3 29.9429 36.08 28.8229 35.64C27.7029 35.2 26.6229 34.5 25.5829 33.54C25.4429 33.4 25.3229 33.25 25.2229 33.09C25.1429 32.91 25.1029 32.72 25.1029 32.52C25.1029 32.2 25.2129 31.92 25.4329 31.68C25.6729 31.42 25.9629 31.29 26.3029 31.29C26.5829 31.29 26.8329 31.4 27.0529 31.62C27.8329 32.38 28.6729 32.96 29.5729 33.36C30.4929 33.76 31.5229 33.96 32.6629 33.96C33.5429 33.96 34.3329 33.82 35.0329 33.54C35.7529 33.26 36.3229 32.87 36.7429 32.37C37.1629 31.87 37.3729 31.29 37.3729 30.63C37.3529 29.83 37.1129 29.17 36.6529 28.65C36.2129 28.13 35.5929 27.7 34.7929 27.36C34.0129 27 33.1029 26.7 32.0629 26.46C31.1429 26.24 30.2929 25.97 29.5129 25.65C28.7529 25.33 28.0929 24.94 27.5329 24.48C26.9729 24 26.5329 23.43 26.2129 22.77C25.9129 22.09 25.7629 21.3 25.7629 20.4C25.7629 19.26 26.0629 18.26 26.6629 17.4C27.2629 16.54 28.0929 15.88 29.1529 15.42C30.2129 14.94 31.4329 14.7 32.8129 14.7C34.0329 14.7 35.1829 14.9 36.2629 15.3C37.3629 15.7 38.2429 16.25 38.9029 16.95C39.3029 17.33 39.5029 17.7 39.5029 18.06C39.5029 18.36 39.3729 18.64 39.1129 18.9C38.8729 19.14 38.5929 19.26 38.2729 19.26C38.0529 19.26 37.8529 19.18 37.6729 19.02C37.3329 18.64 36.9029 18.3 36.3829 18C35.8629 17.7 35.2929 17.46 34.6729 17.28C34.0529 17.1 33.4329 17.01 32.8129 17.01C31.8929 17.01 31.0829 17.15 30.3829 17.43C29.6829 17.69 29.1329 18.07 28.7329 18.57C28.3529 19.05 28.1629 19.63 28.1629 20.31C28.1629 21.07 28.3829 21.7 28.8229 22.2C29.2629 22.68 29.8529 23.08 30.5929 23.4C31.3329 23.7 32.1529 23.97 33.0529 24.21C34.0329 24.45 34.9329 24.73 35.7529 25.05C36.5929 25.35 37.3129 25.73 37.9129 26.19C38.5129 26.65 38.9729 27.24 39.2929 27.96C39.6329 28.66 39.8029 29.53 39.8029 30.57C39.8029 31.67 39.4929 32.65 38.8729 33.51C38.2529 34.37 37.4029 35.05 36.3229 35.55C35.2629 36.03 34.0629 36.28 32.7229 36.3Z" fill="#EBEBEB"/>
</svg>
