<svg width="50" height="50" viewBox="0 0 50 50" fill="none" xmlns="http://www.w3.org/2000/svg">
<rect width="50" height="50" fill="#4C4C4C"/>
<path d="M19.395 31.2625C18.835 31.2625 18.3042 31.1633 17.8025 30.965C17.3008 30.7667 16.8808 30.4633 16.5425 30.055L17.5225 28.4975L17.61 28.3575L17.75 28.445C17.7733 28.5383 17.8025 28.6317 17.8375 28.725C17.8725 28.8183 17.96 28.935 18.1 29.075C18.2633 29.1917 18.4383 29.285 18.625 29.355C18.8117 29.4133 19.01 29.4425 19.22 29.4425C19.5233 29.4425 19.7742 29.3608 19.9725 29.1975C20.1825 29.0225 20.34 28.7658 20.445 28.4275C20.55 28.0775 20.6025 27.6458 20.6025 27.1325V21.69H18.59V20.0975H24.1725V21.69H22.5625V27.2725C22.5742 27.9608 22.4925 28.5558 22.3175 29.0575C22.1425 29.5475 21.9033 29.9558 21.6 30.2825C21.2967 30.6092 20.9525 30.8542 20.5675 31.0175C20.1825 31.1808 19.7917 31.2625 19.395 31.2625ZM28.985 31.1925C28.2617 31.1925 27.5792 31.0875 26.9375 30.8775C26.3075 30.6558 25.7825 30.3233 25.3625 29.88L26.325 28.2525L26.395 28.1125L26.5525 28.2C26.5758 28.2817 26.605 28.3692 26.64 28.4625C26.6867 28.5558 26.78 28.6667 26.92 28.795C27.2117 29.0167 27.5325 29.1975 27.8825 29.3375C28.2442 29.4658 28.635 29.5358 29.055 29.5475C29.3233 29.5475 29.5683 29.5183 29.79 29.46C30.0233 29.4017 30.2217 29.3142 30.385 29.1975C30.5483 29.0808 30.6767 28.935 30.77 28.76C30.8633 28.5733 30.91 28.3633 30.91 28.13C30.91 27.99 30.8925 27.8558 30.8575 27.7275C30.8225 27.5992 30.7583 27.4767 30.665 27.36C30.5833 27.2317 30.4608 27.1092 30.2975 26.9925C30.1342 26.8642 29.93 26.73 29.685 26.59C29.44 26.4383 29.1308 26.2808 28.7575 26.1175C28.0108 25.7908 27.4158 25.4583 26.9725 25.12C26.5408 24.7817 26.2317 24.42 26.045 24.035C25.8583 23.65 25.765 23.2125 25.765 22.7225C25.765 22.1858 25.9108 21.7075 26.2025 21.2875C26.5058 20.8675 26.92 20.535 27.445 20.29C27.97 20.045 28.5708 19.9225 29.2475 19.9225C29.7025 19.9225 30.1283 19.975 30.525 20.08C30.9217 20.185 31.2892 20.3425 31.6275 20.5525C31.9658 20.7508 32.275 21.0075 32.555 21.3225L31.4 22.6525L31.295 22.775L31.155 22.67C31.1433 22.5767 31.12 22.4892 31.085 22.4075C31.0617 22.3142 30.9858 22.1975 30.8575 22.0575C30.6358 21.8475 30.3967 21.7075 30.14 21.6375C29.895 21.5675 29.6033 21.5325 29.265 21.5325C29.02 21.5325 28.8042 21.5617 28.6175 21.62C28.4308 21.6783 28.2675 21.76 28.1275 21.865C27.9992 21.97 27.8942 22.0925 27.8125 22.2325C27.7425 22.3608 27.7075 22.495 27.7075 22.635C27.7075 22.775 27.725 22.9092 27.76 23.0375C27.795 23.1542 27.8533 23.2708 27.935 23.3875C28.0283 23.5042 28.1567 23.6267 28.32 23.755C28.495 23.8717 28.7167 24 28.985 24.14C29.2533 24.28 29.5858 24.4375 29.9825 24.6125C30.5308 24.8692 30.9917 25.12 31.365 25.365C31.7383 25.5983 32.03 25.8492 32.24 26.1175C32.4617 26.3742 32.6192 26.66 32.7125 26.975C32.8058 27.2783 32.8525 27.6225 32.8525 28.0075C32.8525 28.5325 32.7183 29.04 32.45 29.53C32.1817 30.02 31.7617 30.4225 31.19 30.7375C30.6183 31.0408 29.8833 31.1925 28.985 31.1925Z" fill="#EBEBEB"/>
</svg>
