<svg width="50" height="50" viewBox="0 0 50 50" fill="none" xmlns="http://www.w3.org/2000/svg">
<rect width="50" height="50" fill="#4C4C4C"/>
<path d="M25.2508 43C24.7493 43 24.3294 42.8308 23.9911 42.4925C23.6528 42.1542 23.4836 41.7343 23.4836 41.2328V13.8815L11.0676 26.2975C10.7021 26.663 10.2822 26.8458 9.80793 26.8458C9.33369 26.8458 8.91379 26.663 8.54825 26.2975C8.18275 25.932 8 25.5181 8 25.0559C8 24.5937 8.18275 24.1799 8.54825 23.8144L23.76 8.60262C23.9805 8.38211 24.2169 8.22654 24.4691 8.1359C24.7214 8.0453 24.9819 8 25.2508 8C25.5348 8 25.8051 8.0453 26.0619 8.1359C26.3186 8.22654 26.5452 8.38211 26.7416 8.60262L41.9533 23.8144C42.3188 24.1799 42.5016 24.5937 42.5016 25.0559C42.5016 25.5181 42.3188 25.932 41.9533 26.2975C41.5878 26.663 41.1679 26.8458 40.6937 26.8458C40.2194 26.8458 39.7995 26.663 39.434 26.2975L27.018 13.8815V41.2328C27.018 41.7343 26.8488 42.1542 26.5105 42.4925C26.1721 42.8308 25.7523 43 25.2508 43Z" fill="#EBEBEB"/>
</svg>
