<svg width="50" height="50" viewBox="0 0 50 50" fill="none" xmlns="http://www.w3.org/2000/svg">
<rect width="50" height="50" fill="#4C4C4C"/>
<path d="M17.434 38C17.054 38 16.75 37.848 16.522 37.544C16.3193 37.24 16.2433 36.8727 16.294 36.442L20.436 12.388C20.512 12.084 20.6513 11.8433 20.854 11.666C21.0567 11.4887 21.2973 11.4 21.576 11.4C21.9813 11.4 22.2853 11.552 22.488 11.856C22.716 12.1347 22.792 12.4893 22.716 12.92L18.574 37.012C18.5487 37.316 18.422 37.5567 18.194 37.734C17.9913 37.9113 17.738 38 17.434 38ZM15.648 20.444C15.2933 20.444 14.9893 20.33 14.736 20.102C14.508 19.8487 14.394 19.5447 14.394 19.19C14.394 18.8607 14.508 18.5947 14.736 18.392C14.9893 18.1893 15.2933 18.088 15.648 18.088H34.724C35.0787 18.088 35.37 18.2147 35.598 18.468C35.826 18.696 35.94 18.9873 35.94 19.342C35.94 19.6713 35.826 19.9373 35.598 20.14C35.37 20.3427 35.0787 20.444 34.724 20.444H15.648ZM27.276 38C26.8707 38 26.554 37.848 26.326 37.544C26.1233 37.24 26.06 36.8727 26.136 36.442L30.278 12.388C30.3287 12.084 30.4553 11.8433 30.658 11.666C30.8607 11.4887 31.114 11.4 31.418 11.4C31.8233 11.4 32.1273 11.552 32.33 11.856C32.558 12.1347 32.634 12.4893 32.558 12.92L28.416 37.012C28.3653 37.316 28.2387 37.5567 28.036 37.734C27.8333 37.9113 27.58 38 27.276 38ZM14.128 31.122C13.7987 31.122 13.5073 31.008 13.254 30.78C13.026 30.5267 12.912 30.2353 12.912 29.906C12.912 29.5767 13.026 29.3107 13.254 29.108C13.5073 28.9053 13.7987 28.804 14.128 28.804H33.242C33.5967 28.804 33.888 28.918 34.116 29.146C34.344 29.374 34.458 29.6653 34.458 30.02C34.458 30.3493 34.344 30.6153 34.116 30.818C33.888 31.0207 33.5967 31.122 33.242 31.122H14.128Z" fill="#EBEBEB"/>
</svg>
