<svg width="50" height="50" viewBox="0 0 50 50" fill="none" xmlns="http://www.w3.org/2000/svg">
<rect width="50" height="50" fill="#4C4C4C"/>
<path d="M29.9956 21.0977C27.5637 21.0977 25.5928 23.0687 25.5928 25.5006C25.5928 27.9325 27.5637 29.9034 29.9956 29.9034H30.138C32.5699 29.9034 34.5409 27.9325 34.5409 25.5006C34.5409 23.0687 32.5699 21.0977 30.138 21.0977H29.9956ZM30.138 32.0483H29.9956C26.3793 32.0483 23.4479 29.1169 23.4479 25.5006C23.4479 21.8842 26.3793 18.9529 29.9956 18.9529H30.138C33.7544 18.9529 36.6857 21.8842 36.6857 25.5006C36.6857 29.1169 33.7544 32.0483 30.138 32.0483ZM18.9027 32.0483C16.4708 32.0483 14.4987 34.0192 14.4987 36.4511C14.4987 38.883 16.4697 40.854 18.9016 40.854C18.9144 40.854 18.9284 40.854 18.9412 40.854H18.9389C18.9424 40.854 18.9471 40.854 18.9517 40.854C21.4268 40.854 23.4363 38.8539 23.4491 36.3811V32.0483H18.9027ZM18.9377 43C18.9226 43 18.9039 43 18.8852 43C15.2689 43 12.3375 40.0686 12.3375 36.4523C12.3375 32.836 15.2689 29.9046 18.8852 29.9046C18.8911 29.9046 18.8969 29.9046 18.9027 29.9046H25.5928V36.3811C25.5788 40.0395 22.6089 43 18.9494 43C18.9459 43 18.9424 43 18.9389 43H18.9377ZM18.9027 21.0977C16.4708 21.0977 14.4999 23.0687 14.4999 25.5006C14.4999 27.9325 16.4708 29.9046 18.9027 29.9046L23.4479 29.9034V21.0989L18.9027 21.0977ZM25.5916 32.0483H18.9027C15.2864 32.0483 12.355 29.1169 12.355 25.5006C12.355 21.8842 15.2864 18.9529 18.9027 18.9529H25.5928V32.0483H25.5916ZM18.9027 10.1472C16.4708 10.1472 14.4999 12.1181 14.4999 14.55C14.4999 16.9819 16.4708 18.9529 18.9027 18.9529H23.4479V10.146L18.9027 10.1472ZM25.5916 21.0977H18.9027C15.2864 21.0977 12.3539 18.1664 12.3539 14.5489C12.3539 10.9313 15.2852 8 18.9027 8H25.5928V21.0966L25.5916 21.0977ZM25.5916 18.9529H30.138C32.5652 18.9471 34.5292 16.9784 34.5292 14.55C34.5292 12.1216 32.5641 10.153 30.1368 10.1472H25.5916V18.9529ZM30.138 21.0977L23.4479 21.0989V8.00117H30.138C33.7544 8.00117 36.6869 10.9325 36.6869 14.55C36.6869 18.1675 33.7555 21.0977 30.138 21.0977Z" fill="#EBEBEB"/>
</svg>
