<svg width="50" height="50" viewBox="0 0 50 50" fill="none" xmlns="http://www.w3.org/2000/svg">
<rect width="50" height="50" fill="#4C4C4C"/>
<path fill-rule="evenodd" clip-rule="evenodd" d="M41.1269 20.2816C41.1269 18.0477 40.4752 16.0748 39.1874 14.4102C39.474 13.358 39.7803 11.2732 38.8086 8.68786C38.7065 8.41304 38.4827 8.19907 38.2039 8.10287C37.8545 7.98313 35.9759 7.5493 32.2108 10.1268C30.6756 9.72239 29.0561 9.51431 27.3797 9.5045C25.7091 9.51431 24.0896 9.72239 22.5585 10.1268C18.7894 7.55127 16.9108 7.98313 16.5594 8.10289C16.2806 8.1971 16.0568 8.41304 15.9548 8.68983C14.985 11.2732 15.2912 13.358 15.5798 14.4102C14.2901 16.0807 13.6364 18.0516 13.6364 20.2816C13.6364 27.9945 17.6842 30.4443 21.52 31.3297C20.672 32.2582 19.7827 33.6127 19.5923 35.3343C18.2829 35.8094 14.8928 36.7595 13.6619 34.5314C13.607 34.4293 12.3231 32.0207 9.73975 31.8302C9.28235 31.8518 8.19679 31.9088 7.89644 32.8216C7.5588 33.8424 8.61688 34.604 9.13513 34.9633C9.14494 34.9692 10.152 35.5463 10.8469 37.3719C10.8646 37.4563 11.2807 39.4646 13.3086 40.6836C14.9045 41.6455 16.9991 41.8418 19.5334 41.2725C19.5334 41.7004 19.5275 42.152 19.5256 42.4287L19.5196 42.9961H21.4827L21.4866 42.4523C21.522 39.5058 21.5239 39.4488 20.9252 39.1387C20.6975 39.0209 20.4325 38.9934 20.1891 39.0719C17.7038 39.8199 15.6839 39.8022 14.351 39.0209C13.0652 38.2632 12.7825 37.0343 12.7295 36.838C12.6588 36.6436 12.5823 36.4611 12.5057 36.2864C14.8221 38.9443 19.2939 37.6939 20.9566 36.9028C21.3002 36.7418 21.5181 36.3963 21.5181 36.0174C21.5181 33.2927 24.2231 31.5633 24.2506 31.5456C24.604 31.3238 24.7787 30.9037 24.6884 30.4993C24.5981 30.093 24.2624 29.7867 23.8482 29.7376C19.769 29.2488 15.5995 27.7432 15.5995 20.2816C15.5995 18.3421 16.2119 16.652 17.4192 15.2621C17.6548 14.9873 17.7235 14.6045 17.5939 14.2668C17.4153 13.8036 16.9284 12.2096 17.588 9.98348C18.2398 10.0581 19.61 10.4271 21.8047 11.9956C22.0481 12.1703 22.3602 12.2214 22.6507 12.1389C24.1191 11.709 25.7582 11.4774 27.3797 11.4675C29.009 11.4774 30.6462 11.709 32.1185 12.1389C32.409 12.2214 32.7192 12.1703 32.9646 11.9956C35.175 10.4154 36.5471 10.0541 37.1734 9.97758C37.8388 12.2057 37.352 13.8036 37.1734 14.2668C37.0418 14.6045 37.1105 14.9893 37.3481 15.2621C38.5534 16.648 39.1639 18.3363 39.1639 20.2816C39.1639 27.7451 34.9846 29.241 30.8975 29.7219C30.5147 29.7671 30.1928 30.0301 30.0769 30.3972C29.9592 30.7624 30.0671 31.1648 30.3518 31.4239C30.4676 31.5279 30.6246 31.6516 30.8092 31.7929C31.7455 32.5095 33.312 33.7089 33.312 36.5278C33.312 38.0865 33.2865 42.9902 33.2865 42.9902L35.2496 43C35.2496 43 35.2751 38.0884 35.2751 36.5278C35.2751 33.9405 34.2445 32.3328 33.2532 31.312C37.0909 30.4286 41.127 27.9827 41.127 20.2816" fill="#EBEBEB"/>
</svg>
