<svg width="50" height="50" viewBox="0 0 50 50" fill="none" xmlns="http://www.w3.org/2000/svg">
<rect width="50" height="50" fill="#4C4C4C"/>
<path d="M14.8 35.3C13.54 35.3 12.41 34.95 11.41 34.25C10.41 33.55 9.65 32.63 9.13 31.49C9.03 31.31 8.98 31.15 8.98 31.01C8.98 30.75 9.08 30.55 9.28 30.41C9.48 30.25 9.68 30.17 9.88 30.17C10.08 30.17 10.24 30.22 10.36 30.32C10.5 30.42 10.62 30.54 10.72 30.68C11.1 31.52 11.65 32.2 12.37 32.72C13.09 33.24 13.9 33.5 14.8 33.5C15.72 33.5 16.53 33.31 17.23 32.93C17.93 32.53 18.47 31.98 18.85 31.28C19.25 30.58 19.45 29.78 19.45 28.88V14.9C19.45 14.66 19.54 14.45 19.72 14.27C19.92 14.09 20.15 14 20.41 14C20.69 14 20.91 14.09 21.07 14.27C21.25 14.45 21.34 14.66 21.34 14.9V28.88C21.34 30.12 21.06 31.23 20.5 32.21C19.94 33.17 19.17 33.93 18.19 34.49C17.21 35.03 16.08 35.3 14.8 35.3ZM32.778 35.3C31.258 35.32 29.938 35.08 28.818 34.58C27.698 34.08 26.628 33.33 25.608 32.33C25.508 32.25 25.418 32.15 25.338 32.03C25.278 31.91 25.248 31.77 25.248 31.61C25.248 31.37 25.338 31.15 25.518 30.95C25.718 30.75 25.938 30.65 26.178 30.65C26.418 30.65 26.638 30.75 26.838 30.95C27.618 31.79 28.498 32.43 29.478 32.87C30.478 33.31 31.548 33.53 32.688 33.53C33.648 33.53 34.498 33.38 35.238 33.08C35.998 32.78 36.598 32.35 37.038 31.79C37.478 31.23 37.698 30.58 37.698 29.84C37.698 28.92 37.448 28.18 36.948 27.62C36.448 27.04 35.788 26.57 34.968 26.21C34.148 25.83 33.238 25.49 32.238 25.19C31.418 24.95 30.638 24.68 29.898 24.38C29.158 24.06 28.498 23.68 27.918 23.24C27.338 22.78 26.888 22.22 26.568 21.56C26.248 20.9 26.088 20.1 26.088 19.16C26.088 18.1 26.368 17.16 26.928 16.34C27.488 15.52 28.278 14.88 29.298 14.42C30.338 13.94 31.538 13.7 32.898 13.7C34.078 13.7 35.208 13.9 36.288 14.3C37.388 14.7 38.258 15.29 38.898 16.07C39.198 16.39 39.348 16.68 39.348 16.94C39.348 17.14 39.248 17.34 39.048 17.54C38.848 17.74 38.628 17.84 38.388 17.84C38.188 17.84 38.018 17.77 37.878 17.63C37.538 17.21 37.108 16.84 36.588 16.52C36.068 16.18 35.488 15.92 34.848 15.74C34.228 15.56 33.578 15.47 32.898 15.47C31.958 15.47 31.108 15.62 30.348 15.92C29.608 16.2 29.018 16.61 28.578 17.15C28.158 17.69 27.948 18.34 27.948 19.1C27.948 19.94 28.188 20.63 28.668 21.17C29.148 21.71 29.778 22.16 30.558 22.52C31.338 22.86 32.168 23.18 33.048 23.48C33.908 23.72 34.728 24 35.508 24.32C36.308 24.62 37.008 25 37.608 25.46C38.228 25.92 38.708 26.5 39.048 27.2C39.408 27.9 39.588 28.78 39.588 29.84C39.588 30.86 39.298 31.78 38.718 32.6C38.138 33.42 37.338 34.07 36.318 34.55C35.318 35.03 34.138 35.28 32.778 35.3Z" fill="#EBEBEB"/>
</svg>
