<svg width="50" height="50" viewBox="0 0 50 50" fill="none" xmlns="http://www.w3.org/2000/svg">
<rect width="50" height="50" fill="#4C4C4C"/>
<path fill-rule="evenodd" clip-rule="evenodd" d="M15.9455 41.4548V18.8818H8.44349V41.4547H15.9455V41.4548ZM12.1953 15.801C14.8106 15.801 16.4397 14.0662 16.4397 11.9001C16.3902 9.68583 14.8106 8 12.2443 8C9.67767 8.00007 8 9.68589 8 11.9001C8 14.0662 9.62822 15.801 12.1459 15.801L12.1953 15.801ZM20.0976 41.4548C20.0976 41.4548 20.196 20.9998 20.0976 18.8819H27.6007V22.1554H27.5509C28.5375 20.615 30.3149 18.3518 34.3619 18.3518C39.2992 18.3518 43 21.578 43 28.5116V41.4549H35.4981V29.3789C35.4981 26.3446 34.4126 24.2741 31.6969 24.2741C29.6247 24.2741 28.3898 25.67 27.8474 27.0193C27.649 27.4996 27.6007 28.1741 27.6007 28.8488V41.4548H20.0976Z" fill="#EBEBEB"/>
</svg>
