<svg width="50" height="50" viewBox="0 0 50 50" fill="none" xmlns="http://www.w3.org/2000/svg">
<rect width="50" height="50" fill="#4C4C4C"/>
<path d="M22.5307 32.76C23.1725 32.7892 23.8284 32.8102 24.4924 32.8102C25.1634 32.8102 25.8263 32.7962 26.4763 32.76C25.8263 33.6003 25.1845 34.3437 24.5053 35.052L24.5146 35.0427C23.8389 34.3425 23.19 33.5979 22.5785 32.823L22.5307 32.76ZM15.881 31.8264C17.1449 32.1473 18.6865 32.4204 20.2596 32.5885L20.4125 32.6013C21.3753 33.9235 22.3486 35.0871 23.3931 36.1817L23.3802 36.1677C21.8503 37.8751 19.7858 39.0747 17.4506 39.5054L17.3864 39.5147C17.3818 39.5147 17.3771 39.5147 17.3724 39.5147C17.083 39.5147 16.8099 39.4435 16.5707 39.3175L16.58 39.3222C15.6091 38.7678 15.1878 36.6474 15.5157 33.9224C15.5939 33.2513 15.7223 32.5453 15.8798 31.8252L15.881 31.8264ZM33.133 31.8112C33.2707 32.3644 33.4003 33.0693 33.4924 33.7858L33.503 33.8862C33.8379 36.61 33.4248 38.7281 32.462 39.2941C32.2472 39.4132 31.9905 39.4832 31.7174 39.4832C31.6906 39.4832 31.6637 39.482 31.6369 39.4809H31.6404C29.2445 39.0432 27.1812 37.8517 25.6548 36.1654L25.6466 36.156C26.6724 35.0789 27.6387 33.9177 28.5245 32.6958L28.5921 32.5978C30.3147 32.4181 31.8586 32.1403 33.3629 31.7611L33.133 31.8101V31.8112ZM17.2452 27.4559C17.537 28.0278 17.8428 28.5973 18.1789 29.1691C18.5142 29.7378 18.8569 30.2933 19.207 30.8356C18.194 30.6874 17.2161 30.5007 16.2813 30.2731C16.5439 29.3547 16.873 28.4035 17.2441 27.4536L17.2452 27.4559ZM31.7489 27.4268C32.1352 28.3849 32.4631 29.3407 32.7351 30.2673C31.8014 30.496 30.8153 30.6897 29.7953 30.8356C30.1454 30.2883 30.4956 29.7246 30.8235 29.1469C31.1514 28.5786 31.4583 27.9974 31.7513 27.4256L31.7489 27.4268ZM14.7186 21.1844C15.2275 22.9092 15.7736 24.3517 16.4097 25.7427L16.3221 25.5304C15.7783 26.7032 15.2403 28.1375 14.7992 29.6137L14.7385 29.853C13.9146 29.5997 13.2517 29.3512 12.6063 29.0722L12.7406 29.1236C10.2151 28.0488 8.58131 26.6355 8.58131 25.5152C8.58131 24.3948 10.2151 22.9746 12.7406 21.9044C13.3532 21.6419 14.0254 21.4049 14.7186 21.1844ZM34.2533 21.1785C34.9594 21.3968 35.6304 21.6407 36.2583 21.9044C38.7837 22.9839 40.4175 24.3948 40.4175 25.5152C40.4105 26.6355 38.7767 28.0523 36.2513 29.1248C35.6386 29.3873 34.9676 29.6231 34.2755 29.8436C33.762 28.113 33.2159 26.6717 32.5822 25.2783L32.6709 25.4977C33.2124 24.326 33.7515 22.8917 34.1915 21.4154L34.2533 21.175V21.1785ZM29.786 20.1948C30.8001 20.3453 31.7769 20.5297 32.7117 20.7596C32.4491 21.6815 32.1212 22.6291 31.7489 23.5791C31.4572 23.0108 31.1514 22.4378 30.8153 21.8671C30.4874 21.2952 30.1373 20.7386 29.7872 20.1959L29.786 20.1948ZM19.1988 20.1948C18.8487 20.7444 18.4986 21.3069 18.1719 21.8869C17.8439 22.4553 17.537 23.0271 17.2452 23.5989C16.859 22.642 16.531 21.6885 16.2591 20.7596C17.1927 20.5414 18.1765 20.3465 19.1977 20.1971L19.1988 20.1948ZM24.4994 19.8236C25.5789 19.8236 26.6537 19.8727 27.711 19.959C28.3031 20.8078 28.8781 21.7119 29.4359 22.6712C29.9782 23.6048 30.473 24.5508 30.9203 25.5093C30.471 26.4651 29.9786 27.4198 29.4429 28.3534C28.8886 29.3162 28.3156 30.2323 27.7215 31.0807C26.6596 31.1729 25.5836 31.2231 24.4982 31.2231C23.4188 31.2231 22.3439 31.1717 21.2866 31.0877C20.6949 30.2393 20.1173 29.3313 19.5618 28.3755C19.0195 27.4419 18.5247 26.4959 18.0773 25.5374C18.5196 24.5792 19.0191 23.6223 19.5548 22.6875C20.1091 21.7247 20.6821 20.8121 21.2761 19.9637C22.3381 19.8703 23.4141 19.8213 24.4994 19.8213V19.8236ZM24.4772 15.9947C25.1541 16.6949 25.803 17.4383 26.4133 18.2132L26.46 18.275C25.8181 18.2458 25.1623 18.226 24.4982 18.226C23.8272 18.226 23.1643 18.24 22.5143 18.275C23.1632 17.4348 23.805 16.6914 24.4854 15.983L24.4761 15.9923L24.4772 15.9947ZM17.3573 11.546C19.7532 11.9848 21.8153 13.1763 23.3429 14.8615L23.3511 14.8708C22.3253 15.9491 21.359 17.1103 20.4732 18.3345L20.4055 18.4326C18.6842 18.6111 17.1402 18.8865 15.6371 19.2658L15.8658 19.2168C15.7024 18.5026 15.5811 17.8105 15.4959 17.1465C15.1609 14.4227 15.5741 12.3045 16.5369 11.7409C16.7773 11.6277 17.0585 11.5577 17.3549 11.5483H17.3584L17.3573 11.546ZM31.6065 11.5168V11.5261C31.6217 11.5261 31.6392 11.525 31.6579 11.525C31.9368 11.525 32.1994 11.5938 32.4305 11.7152L32.4211 11.7105C33.3921 12.2672 33.8134 14.3865 33.4854 17.1127C33.4073 17.7837 33.2789 18.4909 33.1213 19.2121C31.8551 18.8877 30.3135 18.6134 28.7404 18.4466L28.591 18.4337C27.627 17.1103 26.6537 15.9468 25.6092 14.851L25.6233 14.865C27.1532 13.1611 29.2142 11.9614 31.5447 11.5285L31.6101 11.518L31.6065 11.5168ZM31.6136 9.92734C28.7637 10.3603 26.2966 11.7444 24.4947 13.7411L24.4854 13.7517C22.6707 11.7561 20.2036 10.3813 17.4238 9.96468L17.3584 9.95651C17.3433 9.95651 17.3246 9.95651 17.3059 9.95651C16.7329 9.95651 16.1949 10.1071 15.7293 10.3708L15.7456 10.3626C13.7407 11.5191 13.2914 15.1229 14.3265 19.6451C9.8872 21.0163 7 23.208 7 25.5175C7 27.8364 9.90237 30.0339 14.3545 31.3946C13.3276 35.9343 13.7862 39.5439 15.7958 40.6992C16.2369 40.9525 16.7668 41.1007 17.3304 41.1007C17.3561 41.1007 17.3818 41.1007 17.4063 41.0995H17.4028C20.2526 40.6666 22.7197 39.2813 24.5216 37.2834L24.5309 37.2729C26.3456 39.2696 28.8127 40.6444 31.5925 41.061L31.6579 41.0692C31.6754 41.0692 31.6976 41.0692 31.7186 41.0692C32.2881 41.0692 32.8237 40.9198 33.2871 40.6596L33.2707 40.6677C35.2745 39.5124 35.725 35.9086 34.6898 31.3853C39.1128 30.0257 42 27.8294 42 25.5163C42 23.1975 39.0976 21 34.6455 19.6357C35.6724 15.1007 35.2138 11.4876 33.2042 10.3311C32.7584 10.0755 32.2239 9.925 31.6544 9.925C31.6392 9.925 31.6241 9.925 31.6089 9.925H31.6112L31.6136 9.92734ZM27.7519 25.5175C27.7519 27.3182 26.292 28.7782 24.4912 28.7782C22.6905 28.7782 21.2306 27.3182 21.2306 25.5175C21.2306 23.7168 22.6905 22.2569 24.4912 22.2569C25.3922 22.2569 26.2068 22.6221 26.7973 23.2115C27.3878 23.802 27.7519 24.6166 27.7519 25.5175Z" fill="#EBEBEB"/>
</svg>
